<svg baseProfile="full" xmlns="http://www.w3.org/2000/svg" xmlns:xlink="http://www.w3.org/1999/xlink" stroke-linecap="round" stroke-linejoin="round" fill-rule="evenodd" width="98" height="62" viewBox="-704.966 -459.079 3075.768 1735.827">
  <defs>
    <style>
      .ps0,.ss1{stroke:#000;stroke-width:20}.ss1{fill:#000}.ps0{fill:none}
    </style>
    <path id="cp0" shape-rendering="crispEdges" d="M106 46h1705v1125H106z"/>
    <mask id="cr0" maskUnits="userSpaceOnUse" x="0" y="0" width="1960" height="1240" fill-rule="nonzero">
      <use xlink:href="#cp0" fill="#fff"/>
    </mask>
  </defs>
  <path style="fill:#80e0ff;stroke:#000;stroke-width:41" transform="matrix(1.13119 0 0 1.12819 106.076 45.926)" d="M0 0h1500v1000H0z"/>
  <g mask="url(#a)">
	<g transform="matrix(1.13119 0 0 1.12819 106.076 45.926)">
      <ellipse cx="1050" cy="409" rx="97" ry="86" class="ss1"/>
      <ellipse cx="449" cy="409" rx="96" ry="86" class="ss1"/>
      <path class="ps0" d="m1025 326-44 18-50 24-35 18-31 19-28 19-25 18-21 19-19 20-36 44-23 32-26 53-17 36-18 39-14 46-19 67-10 50-6 45"/>
      <path class="ps0" d="m476 326 44 18 50 24 35 18 31 19 28 19 25 18 21 19 19 20 36 44 23 32 26 53 17 36 18 39 14 46 19 67 10 50 6 45"/>
    </g>
  </g>
  <text style="fill:#333;font-family:Calibri;font-size:500px;text-anchor:middle;white-space:pre" x="947.271" y="-21.244" dx="6.572" dy="37.788">X</text>
  <text style="fill:#333;font-family:Calibri;font-size:500px;letter-spacing:-10px;text-anchor:end;white-space:pre" x="25.421" y="1142.98">100</text>
  <text style="fill:#333;font-family:Calibri;font-size:500px;letter-spacing:-10px;white-space:pre" x="1874.71" y="1142.98">10</text>
</svg>
